<svg width="573.7100219726562px" height="120.8px" xmlns="http://www.w3.org/2000/svg" viewBox="-36.855010986328125 14.600000000000001 573.7100219726562 120.8" style="background:#051103" preserveAspectRatio="xMidYMid"><defs><linearGradient id="editing-glowing-gradient" x1="0.8146601955249185" x2="0.18533980447508147" y1="0.8885729807284856" y2="0.11142701927151444"><stop offset="0" stop-color="#67ff43"></stop><stop offset="1" stop-color="#90ffff"></stop></linearGradient><filter id="editing-glowing" x="-100%" y="-100%" width="300%" height="300%"><feGaussianBlur in="SourceGraphic" result="blur" stdDeviation="10"></feGaussianBlur><feMerge><feMergeNode in="blur"></feMergeNode><feMergeNode in="SourceGraphic"></feMergeNode></feMerge></filter></defs><g filter="url(#editing-glowing)"><g transform="translate(44.9450249671936, 98.68000030517578)"><path d="M6.21-31.17L6.21-31.17L6.21-31.17Q4.03-32.83 4.03-36.38L4.03-36.38L4.03-36.38Q4.03-39.94 6.37-41.79L6.37-41.79L6.37-41.79Q8.70-43.65 12.74-43.65L12.74-43.65L12.74-43.65Q15.30-43.65 21.38-42.75L21.38-42.75L25.73-42.11L25.73-42.11Q27.90-41.86 30.18-41.86L30.18-41.86L30.18-41.86Q32.45-41.86 33.98-42.82L33.98-42.82L33.98-42.82Q36.29-40.77 36.29-37.82L36.29-37.82L36.29-37.82Q36.29-34.88 33.66-32.77L33.66-32.77L33.66-32.77Q30.98-30.53 27.52-30.53L27.52-30.53L27.52-30.53Q25.86-30.53 23.17-30.98L23.17-30.98L23.17-30.98Q20.03-21.12 20.03-14.27L20.03-14.27L20.03-14.27Q20.03-7.42 23.49-3.84L23.49-3.84L23.49-3.84Q21.89-0.96 19.52 0.16L19.52 0.16L19.52 0.16Q17.15 1.28 13.60 1.28L13.60 1.28L13.60 1.28Q10.05 1.28 7.84-0.67L7.84-0.67L7.84-0.67Q5.63-2.62 5.63-6.66L5.63-6.66L5.63-6.66Q5.63-11.33 8.19-19.01L8.19-19.01L8.19-19.01Q10.75-26.62 14.59-32.45L14.59-32.45L14.59-32.45Q12.74-32.64 10.82-32.64L10.82-32.64L10.82-32.64Q6.85-32.64 6.21-31.17ZM54.40-2.69L54.40-2.69L54.40-2.69Q51.33 1.28 43.71 1.28L43.71 1.28L43.71 1.28Q39.74 1.28 36.86-1.12L36.86-1.12L36.86-1.12Q33.98-3.52 33.98-6.98L33.98-6.98L33.98-6.98Q33.98-8.90 34.18-9.86L34.18-9.86L38.46-32.64L51.46-33.92L46.78-9.22L46.78-9.22Q46.53-7.81 46.53-6.98L46.53-6.98L46.53-6.98Q46.53-3.26 48.77-3.26L48.77-3.26L48.77-3.26Q51.26-3.26 53.06-6.66L53.06-6.66L53.06-6.66Q53.63-7.74 53.89-9.15L53.89-9.15L58.43-32.64L71.04-33.92L66.30-8.96L66.30-8.96Q66.11-8 66.11-6.98L66.11-6.98L66.11-6.98Q66.11-5.95 66.69-4.83L66.69-4.83L66.69-4.83Q67.26-3.71 69.12-3.46L69.12-3.46L69.12-3.46Q68.74-1.92 67.39-0.90L67.39-0.90L67.39-0.90Q64.58 1.28 61.54 1.28L61.54 1.28L61.54 1.28Q58.50 1.28 56.70 0.19L56.70 0.19L56.70 0.19Q54.91-0.90 54.40-2.69ZM93.63-22.46L93.63-22.46L93.63-22.46Q94.53-24.83 94.53-26.88L94.53-26.88L94.53-26.88Q94.53-30.66 91.46-30.66L91.46-30.66L91.46-30.66Q89.86-30.66 88.54-29.22L88.54-29.22L88.54-29.22Q87.23-27.78 87.23-25.98L87.23-25.98L87.23-25.98Q87.23-24.70 88.26-23.68L88.26-23.68L88.26-23.68Q89.73-22.27 93.50-19.97L93.50-19.97L93.50-19.97Q97.28-17.66 98.72-15.78L98.72-15.78L98.72-15.78Q100.16-13.89 100.16-11.30L100.16-11.30L100.16-11.30Q100.16-8.70 98.91-6.34L98.91-6.34L98.91-6.34Q97.66-3.97 95.42-2.30L95.42-2.30L95.42-2.30Q90.62 1.28 82.94 1.28L82.94 1.28L82.94 1.28Q78.78 1.28 75.58-0.90L75.58-0.90L75.58-0.90Q72.38-3.01 72.38-5.50L72.38-5.50L72.38-5.50Q72.38-8 74.21-9.47L74.21-9.47L74.21-9.47Q76.03-10.94 78.72-10.94L78.72-10.94L78.72-10.94Q81.41-10.94 83.07-9.92L83.07-9.92L83.07-9.92Q82.24-7.81 82.24-6.40L82.24-6.40L82.24-6.40Q82.24-2.18 85.82-2.18L85.82-2.18L85.82-2.18Q87.36-2.18 88.38-3.14L88.38-3.14L88.38-3.14Q89.41-4.10 89.41-5.76L89.41-5.76L89.41-5.76Q89.41-9.02 83.90-12.48L83.90-12.48L83.90-12.48Q79.42-15.42 78.40-16.58L78.40-16.58L78.40-16.58Q76.67-18.62 76.67-21.18L76.67-21.18L76.67-21.18Q76.67-23.74 77.89-26.18L77.89-26.18L77.89-26.18Q79.10-28.61 81.34-30.34L81.34-30.34L81.34-30.34Q86.02-33.92 94.14-33.92L94.14-33.92L94.14-33.92Q98.30-33.92 100.77-32.26L100.77-32.26L100.77-32.26Q103.23-30.59 103.23-27.78L103.23-27.78L103.23-27.78Q103.23-24.96 101.54-23.36L101.54-23.36L101.54-23.36Q99.84-21.76 96.77-21.76L96.77-21.76L96.77-21.76Q94.66-21.76 93.63-22.46ZM137.79-7.10L137.79-7.10L137.79-7.10Q137.79-4.29 140.67-3.46L140.67-3.46L140.67-3.46Q139.97-1.09 137.22 0.19L137.22 0.19L137.22 0.19Q134.91 1.28 132.38 1.28L132.38 1.28L132.38 1.28Q129.86 1.28 128.54 0.61L128.54 0.61L128.54 0.61Q127.23-0.06 126.53-1.15L126.53-1.15L126.53-1.15Q125.38-2.82 125.38-5.95L125.38-5.95L125.38-5.95Q125.38-7.81 126.40-12.93L126.40-12.93L127.30-17.79L127.30-17.79Q128.38-23.36 128.38-25.41L128.38-25.41L128.38-25.41Q128.38-28.99 126.40-28.99L126.40-28.99L126.40-28.99Q123.90-28.99 122.30-25.34L122.30-25.34L122.30-25.34Q121.66-23.94 121.22-21.82L121.22-21.82L116.86 0L104 1.28L113.02-44.80L125.89-46.08L125.38-43.52L125.38-43.52Q123.58-33.66 122.05-30.34L122.05-30.34L122.05-30.34Q125.63-33.92 132.22-33.92L132.22-33.92L132.22-33.92Q139.20-33.92 140.48-29.31L140.48-29.31L140.48-29.31Q140.93-27.84 140.93-26.56L140.93-26.56L140.93-26.56Q140.93-25.28 140.83-24.29L140.83-24.29L140.83-24.29Q140.74-23.30 140.42-21.50L140.42-21.50L139.58-16.90L138.11-9.66L138.11-9.66Q137.79-8.19 137.79-7.10ZM148.64-1.92L148.64-1.92L148.64-1.92Q147.14-3.58 146.46-6.21L146.46-6.21L146.46-6.21Q145.79-8.83 145.79-13.12L145.79-13.12L145.79-13.12Q145.79-17.41 147.26-21.31L147.26-21.31L147.26-21.31Q148.74-25.22 151.42-28.03L151.42-28.03L151.42-28.03Q156.93-33.92 166.02-33.92L166.02-33.92L166.02-33.92Q169.28-33.92 171.65-32.83L171.65-32.83L182.59-33.92L177.86-8.96L177.86-8.96Q177.66-8.19 177.66-6.78L177.66-6.78L177.66-6.78Q177.66-5.38 178.53-4.48L178.53-4.48L178.53-4.48Q179.39-3.58 180.67-3.46L180.67-3.46L180.67-3.46Q180.03-1.28 177.70 0L177.70 0L177.70 0Q175.36 1.28 172.74 1.28L172.74 1.28L172.74 1.28Q170.11 1.28 168.35 0.29L168.35 0.29L168.35 0.29Q166.59-0.70 166.08-2.37L166.08-2.37L166.08-2.37Q165.06-0.77 162.88 0.26L162.88 0.26L162.88 0.26Q160.70 1.28 157.79 1.28L157.79 1.28L157.79 1.28Q154.88 1.28 152.51 0.51L152.51 0.51L152.51 0.51Q150.14-0.26 148.64-1.92ZM162.14-27.90L162.14-27.90L162.14-27.90Q161.41-26.75 160.77-24.80L160.77-24.80L160.77-24.80Q160.13-22.85 159.07-17.63L159.07-17.63L159.07-17.63Q158.02-12.42 158.02-8.70L158.02-8.70L158.02-8.70Q158.02-4.99 158.59-3.90L158.59-3.90L158.59-3.90Q159.17-2.82 160.19-2.82L160.19-2.82L160.19-2.82Q162.24-2.82 163.74-4.77L163.74-4.77L163.74-4.77Q165.25-6.72 165.82-10.18L165.82-10.18L169.22-28.93L169.22-28.93Q167.87-30.08 166.30-30.08L166.30-30.08L166.30-30.08Q164.74-30.08 163.81-29.57L163.81-29.57L163.81-29.57Q162.88-29.06 162.14-27.90ZM206.08-17.98L206.08-17.98L206.08-17.98Q208.38-22.08 208.38-26.24L208.38-26.24L208.38-26.24Q208.38-28.99 206.40-28.99L206.40-28.99L206.40-28.99Q204.86-28.99 203.26-26.37L203.26-26.37L203.26-26.37Q201.60-23.74 201.09-20.35L201.09-20.35L197.76 0L184.51 1.28L191.04-32.64L201.60-33.92L200.45-27.46L200.45-27.46Q203.58-33.92 210.62-33.92L210.62-33.92L210.62-33.92Q214.34-33.92 216.35-32L216.35-32L216.35-32Q218.37-30.08 218.37-26.14L218.37-26.14L218.37-26.14Q218.37-22.21 215.78-19.71L215.78-19.71L215.78-19.71Q213.18-17.22 208.77-17.22L208.77-17.22L208.77-17.22Q206.85-17.22 206.08-17.98ZM245.63 0L232 0L239.30-38.91L240-42.24L253.70-42.24L245.63 0ZM271.62-3.78L271.62-3.78L271.62-3.78Q269.89 1.28 263.23 1.28L263.23 1.28L263.23 1.28Q258.30 1.28 254.91-4.61L254.91-4.61L254.91-4.61Q251.46-10.50 250.82-20.10L250.82-20.10L250.82-20.10Q257.86-32.96 262.72-38.27L262.72-38.27L262.72-38.27Q267.39-43.33 272.26-43.33L272.26-43.33L272.26-43.33Q274.88-43.33 276.77-41.92L276.77-41.92L276.77-41.92Q278.66-40.51 279.10-38.27L279.10-38.27L279.10-38.27Q276.93-37.38 275.90-36.67L275.90-36.67L275.90-36.67Q273.34-34.75 269.89-30.46L269.89-30.46L264.06-23.49L264.06-23.49Q262.66-21.82 262.08-21.06L262.08-21.06L262.08-21.06Q263.04-15.68 265.92-10.37L265.92-10.37L265.92-10.37Q268.67-5.31 271.62-3.78ZM309.25-7.10L309.25-7.10L309.25-7.10Q309.25-4.29 312.13-3.46L312.13-3.46L312.13-3.46Q311.42-1.09 308.67 0.19L308.67 0.19L308.67 0.19Q306.37 1.28 303.84 1.28L303.84 1.28L303.84 1.28Q301.31 1.28 300 0.61L300 0.61L300 0.61Q298.69-0.06 297.98-1.15L297.98-1.15L297.98-1.15Q296.83-2.82 296.83-5.95L296.83-5.95L296.83-5.95Q296.83-7.81 297.86-12.93L297.86-12.93L298.75-17.79L298.75-17.79Q299.84-23.36 299.84-25.41L299.84-25.41L299.84-25.41Q299.84-28.99 297.86-28.99L297.86-28.99L297.86-28.99Q295.36-28.99 293.76-25.34L293.76-25.34L293.76-25.34Q293.12-23.94 292.67-21.82L292.67-21.82L288.32 0L275.46 1.28L284.48-44.80L297.34-46.08L296.83-43.52L296.83-43.52Q295.04-33.66 293.50-30.34L293.50-30.34L293.50-30.34Q297.09-33.92 303.68-33.92L303.68-33.92L303.68-33.92Q310.66-33.92 311.94-29.31L311.94-29.31L311.94-29.31Q312.38-27.84 312.38-26.56L312.38-26.56L312.38-26.56Q312.38-25.28 312.29-24.29L312.29-24.29L312.29-24.29Q312.19-23.30 311.87-21.50L311.87-21.50L311.04-16.90L309.57-9.66L309.57-9.66Q309.25-8.19 309.25-7.10ZM343.23-10.82L343.23-10.82L343.23-10.82Q344.83-9.73 344.83-7.33L344.83-7.33L344.83-7.33Q344.83-4.93 343.62-3.39L343.62-3.39L343.62-3.39Q342.40-1.86 340.42-0.83L340.42-0.83L340.42-0.83Q336.32 1.28 331.90 1.28L331.90 1.28L331.90 1.28Q327.49 1.28 324.90 0.32L324.90 0.32L324.90 0.32Q322.30-0.64 320.58-2.43L320.58-2.43L320.58-2.43Q317.18-5.82 317.18-12.03L317.18-12.03L317.18-12.03Q317.18-21.70 322.43-27.58L322.43-27.58L322.43-27.58Q328.06-33.92 337.86-33.92L337.86-33.92L337.86-33.92Q343.94-33.92 346.94-31.36L346.94-31.36L346.94-31.36Q349.18-29.44 349.18-26.30L349.18-26.30L349.18-26.30Q349.18-15.04 329.73-15.04L329.73-15.04L329.73-15.04Q329.47-13.38 329.47-11.97L329.47-11.97L329.47-11.97Q329.47-9.02 330.78-7.90L330.78-7.90L330.78-7.90Q332.10-6.78 334.53-6.78L334.53-6.78L334.53-6.78Q336.96-6.78 339.55-7.90L339.55-7.90L339.55-7.90Q342.14-9.02 343.23-10.82ZM330.18-17.79L330.18-17.79L330.18-17.79Q334.72-17.79 337.34-20.61L337.34-20.61L337.34-20.61Q339.97-23.30 339.97-27.58L339.97-27.58L339.97-27.58Q339.97-29.06 339.42-29.86L339.42-29.86L339.42-29.86Q338.88-30.66 337.79-30.66L337.79-30.66L337.79-30.66Q336.70-30.66 335.78-30.24L335.78-30.24L335.78-30.24Q334.85-29.82 333.89-28.42L333.89-28.42L333.89-28.42Q331.52-25.22 330.18-17.79ZM352.38-6.40L352.38-6.40L352.38-6.40Q352.38-8.13 353.28-12.48L353.28-12.48L356.67-29.76L352.90-29.76L353.15-31.68L353.15-31.68Q360.83-33.98 368.26-39.62L368.26-39.62L371.33-39.62L369.79-32.64L374.78-32.64L374.21-29.76L369.28-29.76L366.02-12.48L366.02-12.48Q365.18-8.51 365.18-7.17L365.18-7.17L365.18-7.17Q365.18-4.10 367.87-3.46L367.87-3.46L367.87-3.46Q367.23-1.28 364.93 0L364.93 0L364.93 0Q362.62 1.28 359.36 1.28L359.36 1.28L359.36 1.28Q356.10 1.28 354.24-0.77L354.24-0.77L354.24-0.77Q352.38-2.82 352.38-6.40ZM400.13-10.82L400.13-10.82L400.13-10.82Q401.73-9.73 401.73-7.33L401.73-7.33L401.73-7.33Q401.73-4.93 400.51-3.39L400.51-3.39L400.51-3.39Q399.30-1.86 397.31-0.83L397.31-0.83L397.31-0.83Q393.22 1.28 388.80 1.28L388.80 1.28L388.80 1.28Q384.38 1.28 381.79 0.32L381.79 0.32L381.79 0.32Q379.20-0.64 377.47-2.43L377.47-2.43L377.47-2.43Q374.08-5.82 374.08-12.03L374.08-12.03L374.08-12.03Q374.08-21.70 379.33-27.58L379.33-27.58L379.33-27.58Q384.96-33.92 394.75-33.92L394.75-33.92L394.75-33.92Q400.83-33.92 403.84-31.36L403.84-31.36L403.84-31.36Q406.08-29.44 406.08-26.30L406.08-26.30L406.08-26.30Q406.08-15.04 386.62-15.04L386.62-15.04L386.62-15.04Q386.37-13.38 386.37-11.97L386.37-11.97L386.37-11.97Q386.37-9.02 387.68-7.90L387.68-7.90L387.68-7.90Q388.99-6.78 391.42-6.78L391.42-6.78L391.42-6.78Q393.86-6.78 396.45-7.90L396.45-7.90L396.45-7.90Q399.04-9.02 400.13-10.82ZM387.07-17.79L387.07-17.79L387.07-17.79Q391.62-17.79 394.24-20.61L394.24-20.61L394.24-20.61Q396.86-23.30 396.86-27.58L396.86-27.58L396.86-27.58Q396.86-29.06 396.32-29.86L396.32-29.86L396.32-29.86Q395.78-30.66 394.69-30.66L394.69-30.66L394.69-30.66Q393.60-30.66 392.67-30.24L392.67-30.24L392.67-30.24Q391.74-29.82 390.78-28.42L390.78-28.42L390.78-28.42Q388.42-25.22 387.07-17.79Z" fill="url(#editing-glowing-gradient)"></path></g></g><style>text {
  font-size: 64px;
  font-family: Arial Black;
  dominant-baseline: central;
  text-anchor: middle;
}</style></svg>