<svg xmlns="http://www.w3.org/2000/svg" width="1186" height="140" viewBox="0 0 1186 140">
  <defs><linearGradient id="brd" x1="0" y1="0" x2="1" y2="1"><stop offset="0" stop-color="#06B6D4"/><stop offset="1" stop-color="#6D28D9"/></linearGradient></defs>
  <g transform="translate(20 20)">
     <rect x="0" y="0" width="150" height="100" rx="12" fill="#0D1117" stroke="url(#brd)" stroke-width="2"/>
     <text x="75" y="38" text-anchor="middle" font-size="30">🏆</text>
     <text x="75" y="68" text-anchor="middle" font-size="20" font-weight="800" font-family="'Segoe UI',sans-serif" fill="#FFFFFF">46</text>
     <text x="75" y="88" text-anchor="middle" font-size="12" letter-spacing="1" font-family="'Segoe UI',sans-serif" fill="#06B6D4">STARS</text>
   </g><g transform="translate(186 20)">
     <rect x="0" y="0" width="150" height="100" rx="12" fill="#0D1117" stroke="url(#brd)" stroke-width="2"/>
     <text x="75" y="38" text-anchor="middle" font-size="30">📦</text>
     <text x="75" y="68" text-anchor="middle" font-size="20" font-weight="800" font-family="'Segoe UI',sans-serif" fill="#FFFFFF">91</text>
     <text x="75" y="88" text-anchor="middle" font-size="12" letter-spacing="1" font-family="'Segoe UI',sans-serif" fill="#06B6D4">REPOS</text>
   </g><g transform="translate(352 20)">
     <rect x="0" y="0" width="150" height="100" rx="12" fill="#0D1117" stroke="url(#brd)" stroke-width="2"/>
     <text x="75" y="38" text-anchor="middle" font-size="30">👥</text>
     <text x="75" y="68" text-anchor="middle" font-size="20" font-weight="800" font-family="'Segoe UI',sans-serif" fill="#FFFFFF">85</text>
     <text x="75" y="88" text-anchor="middle" font-size="12" letter-spacing="1" font-family="'Segoe UI',sans-serif" fill="#06B6D4">FOLLOWERS</text>
   </g><g transform="translate(518 20)">
     <rect x="0" y="0" width="150" height="100" rx="12" fill="#0D1117" stroke="url(#brd)" stroke-width="2"/>
     <text x="75" y="38" text-anchor="middle" font-size="30">🔥</text>
     <text x="75" y="68" text-anchor="middle" font-size="20" font-weight="800" font-family="'Segoe UI',sans-serif" fill="#FFFFFF">579+</text>
     <text x="75" y="88" text-anchor="middle" font-size="12" letter-spacing="1" font-family="'Segoe UI',sans-serif" fill="#06B6D4">COMMITS</text>
   </g><g transform="translate(684 20)">
     <rect x="0" y="0" width="150" height="100" rx="12" fill="#0D1117" stroke="url(#brd)" stroke-width="2"/>
     <text x="75" y="38" text-anchor="middle" font-size="30">🤖</text>
     <text x="75" y="68" text-anchor="middle" font-size="20" font-weight="800" font-family="'Segoe UI',sans-serif" fill="#FFFFFF">GenAI</text>
     <text x="75" y="88" text-anchor="middle" font-size="12" letter-spacing="1" font-family="'Segoe UI',sans-serif" fill="#06B6D4">FOCUS</text>
   </g><g transform="translate(850 20)">
     <rect x="0" y="0" width="150" height="100" rx="12" fill="#0D1117" stroke="url(#brd)" stroke-width="2"/>
     <text x="75" y="38" text-anchor="middle" font-size="30">🧠</text>
     <text x="75" y="68" text-anchor="middle" font-size="20" font-weight="800" font-family="'Segoe UI',sans-serif" fill="#FFFFFF">LLM</text>
     <text x="75" y="88" text-anchor="middle" font-size="12" letter-spacing="1" font-family="'Segoe UI',sans-serif" fill="#06B6D4">AGENTS</text>
   </g><g transform="translate(1016 20)">
     <rect x="0" y="0" width="150" height="100" rx="12" fill="#0D1117" stroke="url(#brd)" stroke-width="2"/>
     <text x="75" y="38" text-anchor="middle" font-size="30">⚡</text>
     <text x="75" y="68" text-anchor="middle" font-size="20" font-weight="800" font-family="'Segoe UI',sans-serif" fill="#FFFFFF">4+ yr</text>
     <text x="75" y="88" text-anchor="middle" font-size="12" letter-spacing="1" font-family="'Segoe UI',sans-serif" fill="#06B6D4">BUILDING</text>
   </g>
</svg>
