<svg xmlns="http://www.w3.org/2000/svg" width="480" height="480" viewBox="0 0 480 480"><defs><linearGradient id="g" x1="0" y1="0" x2="1" y2="1"><stop offset="0" stop-color="#06B6D4"/><stop offset="1" stop-color="#6D28D9"/></linearGradient></defs><rect x="0" y="0" width="60" height="60" fill="#E8E6F0"/><rect x="60" y="0" width="60" height="60" fill="#4C1D95"/><rect x="120" y="0" width="60" height="60" fill="#E8E6F0"/><rect x="180" y="0" width="60" height="60" fill="#4C1D95"/><rect x="240" y="0" width="60" height="60" fill="#E8E6F0"/><rect x="300" y="0" width="60" height="60" fill="#4C1D95"/><rect x="360" y="0" width="60" height="60" fill="#E8E6F0"/><rect x="420" y="0" width="60" height="60" fill="#4C1D95"/><rect x="0" y="60" width="60" height="60" fill="#4C1D95"/><rect x="60" y="60" width="60" height="60" fill="#E8E6F0"/><rect x="120" y="60" width="60" height="60" fill="#4C1D95"/><rect x="180" y="60" width="60" height="60" fill="#E8E6F0"/><rect x="240" y="60" width="60" height="60" fill="#4C1D95"/><rect x="300" y="60" width="60" height="60" fill="#E8E6F0"/><rect x="360" y="60" width="60" height="60" fill="#4C1D95"/><rect x="420" y="60" width="60" height="60" fill="#E8E6F0"/><rect x="0" y="120" width="60" height="60" fill="#E8E6F0"/><rect x="60" y="120" width="60" height="60" fill="#4C1D95"/><rect x="120" y="120" width="60" height="60" fill="#E8E6F0"/><rect x="180" y="120" width="60" height="60" fill="#4C1D95"/><rect x="240" y="120" width="60" height="60" fill="#E8E6F0"/><rect x="300" y="120" width="60" height="60" fill="#4C1D95"/><rect x="360" y="120" width="60" height="60" fill="#E8E6F0"/><rect x="420" y="120" width="60" height="60" fill="#4C1D95"/><rect x="0" y="180" width="60" height="60" fill="#4C1D95"/><rect x="60" y="180" width="60" height="60" fill="#E8E6F0"/><rect x="120" y="180" width="60" height="60" fill="#4C1D95"/><rect x="180" y="180" width="60" height="60" fill="#E8E6F0"/><rect x="240" y="180" width="60" height="60" fill="#4C1D95"/><rect x="300" y="180" width="60" height="60" fill="#E8E6F0"/><rect x="360" y="180" width="60" height="60" fill="#4C1D95"/><rect x="420" y="180" width="60" height="60" fill="#E8E6F0"/><rect x="0" y="240" width="60" height="60" fill="#E8E6F0"/><rect x="60" y="240" width="60" height="60" fill="#4C1D95"/><rect x="120" y="240" width="60" height="60" fill="#E8E6F0"/><rect x="180" y="240" width="60" height="60" fill="#4C1D95"/><rect x="240" y="240" width="60" height="60" fill="#E8E6F0"/><rect x="300" y="240" width="60" height="60" fill="#4C1D95"/><rect x="360" y="240" width="60" height="60" fill="#E8E6F0"/><rect x="420" y="240" width="60" height="60" fill="#4C1D95"/><rect x="0" y="300" width="60" height="60" fill="#4C1D95"/><rect x="60" y="300" width="60" height="60" fill="#E8E6F0"/><rect x="120" y="300" width="60" height="60" fill="#4C1D95"/><rect x="180" y="300" width="60" height="60" fill="#E8E6F0"/><rect x="240" y="300" width="60" height="60" fill="#4C1D95"/><rect x="300" y="300" width="60" height="60" fill="#E8E6F0"/><rect x="360" y="300" width="60" height="60" fill="#4C1D95"/><rect x="420" y="300" width="60" height="60" fill="#E8E6F0"/><rect x="0" y="360" width="60" height="60" fill="#E8E6F0"/><rect x="60" y="360" width="60" height="60" fill="#4C1D95"/><rect x="120" y="360" width="60" height="60" fill="#E8E6F0"/><rect x="180" y="360" width="60" height="60" fill="#4C1D95"/><rect x="240" y="360" width="60" height="60" fill="#E8E6F0"/><rect x="300" y="360" width="60" height="60" fill="#4C1D95"/><rect x="360" y="360" width="60" height="60" fill="#E8E6F0"/><rect x="420" y="360" width="60" height="60" fill="#4C1D95"/><rect x="0" y="420" width="60" height="60" fill="#4C1D95"/><rect x="60" y="420" width="60" height="60" fill="#E8E6F0"/><rect x="120" y="420" width="60" height="60" fill="#4C1D95"/><rect x="180" y="420" width="60" height="60" fill="#E8E6F0"/><rect x="240" y="420" width="60" height="60" fill="#4C1D95"/><rect x="300" y="420" width="60" height="60" fill="#E8E6F0"/><rect x="360" y="420" width="60" height="60" fill="#4C1D95"/><rect x="420" y="420" width="60" height="60" fill="#E8E6F0"/><text x="30" y="30" font-size="43.199999999999996" text-anchor="middle" dominant-baseline="central" fill="#0D1117" stroke="#000" stroke-width="1">♜</text><text x="90" y="30" font-size="43.199999999999996" text-anchor="middle" dominant-baseline="central" fill="#0D1117" stroke="#000" stroke-width="1">♞</text><text x="150" y="30" font-size="43.199999999999996" text-anchor="middle" dominant-baseline="central" fill="#0D1117" stroke="#000" stroke-width="1">♝</text><text x="210" y="30" font-size="43.199999999999996" text-anchor="middle" dominant-baseline="central" fill="#0D1117" stroke="#000" stroke-width="1">♛</text><text x="270" y="30" font-size="43.199999999999996" text-anchor="middle" dominant-baseline="central" fill="#0D1117" stroke="#000" stroke-width="1">♚</text><text x="330" y="30" font-size="43.199999999999996" text-anchor="middle" dominant-baseline="central" fill="#0D1117" stroke="#000" stroke-width="1">♝</text><text x="390" y="30" font-size="43.199999999999996" text-anchor="middle" dominant-baseline="central" fill="#0D1117" stroke="#000" stroke-width="1">♞</text><text x="450" y="30" font-size="43.199999999999996" text-anchor="middle" dominant-baseline="central" fill="#0D1117" stroke="#000" stroke-width="1">♜</text><text x="30" y="90" font-size="43.199999999999996" text-anchor="middle" dominant-baseline="central" fill="#0D1117" stroke="#000" stroke-width="1">♟</text><text x="90" y="90" font-size="43.199999999999996" text-anchor="middle" dominant-baseline="central" fill="#0D1117" stroke="#000" stroke-width="1">♟</text><text x="150" y="90" font-size="43.199999999999996" text-anchor="middle" dominant-baseline="central" fill="#0D1117" stroke="#000" stroke-width="1">♟</text><text x="210" y="90" font-size="43.199999999999996" text-anchor="middle" dominant-baseline="central" fill="#0D1117" stroke="#000" stroke-width="1">♟</text><text x="270" y="90" font-size="43.199999999999996" text-anchor="middle" dominant-baseline="central" fill="#0D1117" stroke="#000" stroke-width="1">♟</text><text x="330" y="90" font-size="43.199999999999996" text-anchor="middle" dominant-baseline="central" fill="#0D1117" stroke="#000" stroke-width="1">♟</text><text x="390" y="90" font-size="43.199999999999996" text-anchor="middle" dominant-baseline="central" fill="#0D1117" stroke="#000" stroke-width="1">♟</text><text x="450" y="90" font-size="43.199999999999996" text-anchor="middle" dominant-baseline="central" fill="#0D1117" stroke="#000" stroke-width="1">♟</text><text x="30" y="390" font-size="43.199999999999996" text-anchor="middle" dominant-baseline="central" fill="#FFFFFF" stroke="#2563EB" stroke-width="1">♙</text><text x="90" y="390" font-size="43.199999999999996" text-anchor="middle" dominant-baseline="central" fill="#FFFFFF" stroke="#2563EB" stroke-width="1">♙</text><text x="150" y="390" font-size="43.199999999999996" text-anchor="middle" dominant-baseline="central" fill="#FFFFFF" stroke="#2563EB" stroke-width="1">♙</text><text x="210" y="390" font-size="43.199999999999996" text-anchor="middle" dominant-baseline="central" fill="#FFFFFF" stroke="#2563EB" stroke-width="1">♙</text><text x="270" y="390" font-size="43.199999999999996" text-anchor="middle" dominant-baseline="central" fill="#FFFFFF" stroke="#2563EB" stroke-width="1">♙</text><text x="330" y="390" font-size="43.199999999999996" text-anchor="middle" dominant-baseline="central" fill="#FFFFFF" stroke="#2563EB" stroke-width="1">♙</text><text x="390" y="390" font-size="43.199999999999996" text-anchor="middle" dominant-baseline="central" fill="#FFFFFF" stroke="#2563EB" stroke-width="1">♙</text><text x="450" y="390" font-size="43.199999999999996" text-anchor="middle" dominant-baseline="central" fill="#FFFFFF" stroke="#2563EB" stroke-width="1">♙</text><text x="30" y="450" font-size="43.199999999999996" text-anchor="middle" dominant-baseline="central" fill="#FFFFFF" stroke="#2563EB" stroke-width="1">♖</text><text x="90" y="450" font-size="43.199999999999996" text-anchor="middle" dominant-baseline="central" fill="#FFFFFF" stroke="#2563EB" stroke-width="1">♘</text><text x="150" y="450" font-size="43.199999999999996" text-anchor="middle" dominant-baseline="central" fill="#FFFFFF" stroke="#2563EB" stroke-width="1">♗</text><text x="210" y="450" font-size="43.199999999999996" text-anchor="middle" dominant-baseline="central" fill="#FFFFFF" stroke="#2563EB" stroke-width="1">♕</text><text x="270" y="450" font-size="43.199999999999996" text-anchor="middle" dominant-baseline="central" fill="#FFFFFF" stroke="#2563EB" stroke-width="1">♔</text><text x="330" y="450" font-size="43.199999999999996" text-anchor="middle" dominant-baseline="central" fill="#FFFFFF" stroke="#2563EB" stroke-width="1">♗</text><text x="390" y="450" font-size="43.199999999999996" text-anchor="middle" dominant-baseline="central" fill="#FFFFFF" stroke="#2563EB" stroke-width="1">♘</text><text x="450" y="450" font-size="43.199999999999996" text-anchor="middle" dominant-baseline="central" fill="#FFFFFF" stroke="#2563EB" stroke-width="1">♖</text><rect x="1.5" y="1.5" width="477" height="477" fill="none" stroke="url(#g)" stroke-width="4"/></svg>
